<?xml version="1.0" encoding="UTF-8"?>
<svg width="138px" height="33px" viewBox="0 0 138 33" version="1.1" xmlns="http://www.w3.org/2000/svg" xmlns:xlink="http://www.w3.org/1999/xlink">
    <title>logo-cofaral-header</title>
    <defs>
        <linearGradient x1="-2.78027344%" y1="45.2820513%" x2="97.2197266%" y2="45.2820513%" id="linearGradient-1">
            <stop stop-color="#EC1C24" offset="0%"></stop>
            <stop stop-color="#F48120" offset="16%"></stop>
            <stop stop-color="#FFCA05" offset="33%"></stop>
            <stop stop-color="#006237" offset="50%"></stop>
            <stop stop-color="#00ADEE" offset="66%"></stop>
            <stop stop-color="#0A2751" offset="83%"></stop>
            <stop stop-color="#714596" offset="100%"></stop>
        </linearGradient>
    </defs>
    <g id="Page-1" stroke="none" stroke-width="1" fill="none" fill-rule="evenodd">
        <g id="logo-cofaral-header">
            <polygon id="Clip-898" fill="url(#linearGradient-1)" fill-rule="nonzero" points="0.039 30.9058 40.994 30.9058 40.994 31.6858 0.039 31.6858"></polygon>
            <path d="M45.8441,31.9803 C45.6501,32.0623 45.3371,32.1183 45.0431,32.1183 C44.1981,32.1183 43.6971,31.5853 43.6971,30.7413 C43.6971,29.8023 44.2851,29.3453 45.0361,29.3453 C45.3811,29.3453 45.6501,29.4203 45.8381,29.5013 L46.0381,28.7503 C45.8691,28.6563 45.4931,28.5633 44.9991,28.5633 C43.7221,28.5633 42.6951,29.3573 42.6951,30.7973 C42.6951,31.9993 43.4471,32.9133 44.9051,32.9133 C45.4121,32.9133 45.8131,32.8133 45.9821,32.7313 L45.8441,31.9803 Z M49.0681,31.0353 C49.0681,30.3093 48.7481,29.7083 47.7281,29.7083 C47.1711,29.7083 46.7521,29.8643 46.5391,29.9833 L46.7141,30.5973 C46.9141,30.4713 47.2461,30.3653 47.5591,30.3653 C48.0291,30.3653 48.1161,30.5973 48.1161,30.7663 L48.1161,30.8033 C47.0331,30.8033 46.3201,31.1793 46.3201,31.9743 C46.3201,32.4623 46.6891,32.9133 47.3091,32.9133 C47.6721,32.9133 47.9851,32.7813 48.1851,32.5373 L48.2031,32.5373 L48.2601,32.8443 L49.1181,32.8443 C49.0801,32.6753 49.0681,32.3933 49.0681,32.1053 L49.0681,31.0353 Z M48.1471,31.7303 C48.1471,31.7863 48.1411,31.8423 48.1291,31.8933 C48.0661,32.0863 47.8651,32.2433 47.6341,32.2433 C47.4211,32.2433 47.2591,32.1243 47.2591,31.8803 C47.2591,31.5173 47.6471,31.3983 48.1471,31.3983 L48.1471,31.7303 Z M49.8241,32.8443 L50.7761,32.8443 L50.7761,28.3933 L49.8241,28.3933 L49.8241,32.8443 Z M51.5461,32.8443 L52.4981,32.8443 L52.4981,29.7833 L51.5461,29.7833 L51.5461,32.8443 Z M52.0281,28.4563 C51.7211,28.4563 51.5211,28.6633 51.5211,28.9323 C51.5211,29.1953 51.7151,29.4083 52.0151,29.4083 C52.3351,29.4083 52.5291,29.1953 52.5291,28.9323 C52.5231,28.6633 52.3351,28.4563 52.0281,28.4563 L52.0281,28.4563 Z M55.2771,28.3933 L55.2771,30.0523 L55.2641,30.0523 C55.1271,29.8463 54.8391,29.7083 54.4571,29.7083 C53.7241,29.7083 53.0801,30.3093 53.0861,31.3413 C53.0861,32.2933 53.6681,32.9133 54.3941,32.9133 C54.7891,32.9133 55.1641,32.7383 55.3521,32.4003 L55.3711,32.4003 L55.4081,32.8443 L56.2531,32.8443 C56.2401,32.6373 56.2281,32.2743 56.2281,31.9303 L56.2281,28.3933 L55.2771,28.3933 Z M55.2771,31.4803 C55.2771,31.5543 55.2711,31.6293 55.2581,31.6983 C55.2021,31.9673 54.9761,32.1553 54.7011,32.1553 C54.3061,32.1553 54.0501,31.8303 54.0501,31.3113 C54.0501,30.8283 54.2691,30.4403 54.7071,30.4403 C55.0011,30.4403 55.2081,30.6533 55.2641,30.9043 C55.2771,30.9603 55.2771,31.0293 55.2771,31.0793 L55.2771,31.4803 Z M59.5401,31.0353 C59.5401,30.3093 59.2201,29.7083 58.2001,29.7083 C57.6431,29.7083 57.2241,29.8643 57.0111,29.9833 L57.1861,30.5973 C57.3861,30.4713 57.7191,30.3653 58.0311,30.3653 C58.5001,30.3653 58.5881,30.5973 58.5881,30.7663 L58.5881,30.8033 C57.5051,30.8033 56.7921,31.1793 56.7921,31.9743 C56.7921,32.4623 57.1611,32.9133 57.7811,32.9133 C58.1441,32.9133 58.4571,32.7813 58.6571,32.5373 L58.6761,32.5373 L58.7321,32.8443 L59.5901,32.8443 C59.5521,32.6753 59.5401,32.3933 59.5401,32.1053 L59.5401,31.0353 Z M58.6191,31.7303 C58.6191,31.7863 58.6131,31.8423 58.6011,31.8933 C58.5381,32.0863 58.3381,32.2433 58.1061,32.2433 C57.8931,32.2433 57.7301,32.1243 57.7301,31.8803 C57.7301,31.5173 58.1181,31.3983 58.6191,31.3983 L58.6191,31.7303 Z M62.3121,28.3933 L62.3121,30.0523 L62.3001,30.0523 C62.1621,29.8463 61.8741,29.7083 61.4921,29.7083 C60.7601,29.7083 60.1151,30.3093 60.1221,31.3413 C60.1221,32.2933 60.7041,32.9133 61.4301,32.9133 C61.8241,32.9133 62.1991,32.7383 62.3871,32.4003 L62.4061,32.4003 L62.4441,32.8443 L63.2891,32.8443 C63.2761,32.6373 63.2641,32.2743 63.2641,31.9303 L63.2641,28.3933 L62.3121,28.3933 Z M62.3121,31.4803 C62.3121,31.5543 62.3061,31.6293 62.2941,31.6983 C62.2371,31.9673 62.0121,32.1553 61.7371,32.1553 C61.3421,32.1553 61.0851,31.8303 61.0851,31.3113 C61.0851,30.8283 61.3041,30.4403 61.7431,30.4403 C62.0371,30.4403 62.2431,30.6533 62.3001,30.9043 C62.3121,30.9603 62.3121,31.0293 62.3121,31.0793 L62.3121,31.4803 Z M67.9961,31.6173 C68.0091,31.5483 68.0281,31.4043 68.0281,31.2423 C68.0281,30.4843 67.6521,29.7143 66.6631,29.7143 C65.5991,29.7143 65.1161,30.5723 65.1161,31.3483 C65.1161,32.3053 65.7111,32.9073 66.7501,32.9073 C67.1631,32.9073 67.5451,32.8443 67.8581,32.7123 L67.7331,32.0673 C67.4771,32.1553 67.2141,32.1993 66.8881,32.1993 C66.4441,32.1993 66.0501,32.0113 66.0241,31.6173 L67.9961,31.6173 Z M66.0181,30.9663 C66.0431,30.7163 66.2061,30.3463 66.6061,30.3463 C67.0441,30.3463 67.1451,30.7343 67.1451,30.9663 L66.0181,30.9663 Z M68.5971,32.8443 L69.5491,32.8443 L69.5491,31.0793 C69.5491,30.9913 69.5541,30.9043 69.5801,30.8413 C69.6481,30.6663 69.8051,30.4843 70.0681,30.4843 C70.4131,30.4843 70.5501,30.7533 70.5501,31.1473 L70.5501,32.8443 L71.5021,32.8443 L71.5021,31.0353 C71.5021,30.1333 71.0321,29.7143 70.4061,29.7143 C69.8921,29.7143 69.5861,30.0083 69.4611,30.2093 L69.4421,30.2093 L69.3981,29.7833 L68.5721,29.7833 C68.5841,30.0593 68.5971,30.3783 68.5971,30.7603 L68.5971,32.8443 Z M73.3981,32.6443 C73.6361,32.7753 74.1111,32.9073 74.5941,32.9073 C75.7521,32.9073 76.2901,32.3053 76.2901,31.5983 C76.2901,31.0033 75.9451,30.6163 75.2011,30.3403 C74.6501,30.1333 74.4191,30.0153 74.4191,29.7453 C74.4191,29.5333 74.6191,29.3383 75.0321,29.3383 C75.4381,29.3383 75.7451,29.4583 75.9081,29.5393 L76.1211,28.7753 C75.8701,28.6563 75.5261,28.5633 75.0441,28.5633 C74.0551,28.5633 73.4481,29.1073 73.4481,29.8273 C73.4481,30.4403 73.9111,30.8283 74.6121,31.0793 C75.1201,31.2543 75.3191,31.4043 75.3191,31.6673 C75.3191,31.9423 75.0881,32.1243 74.6501,32.1243 C74.2431,32.1243 73.8431,31.9933 73.5921,31.8613 L73.3981,32.6443 Z M79.6571,31.6173 C79.6701,31.5483 79.6891,31.4043 79.6891,31.2423 C79.6891,30.4843 79.3131,29.7143 78.3241,29.7143 C77.2611,29.7143 76.7781,30.5723 76.7781,31.3483 C76.7781,32.3053 77.3731,32.9073 78.4121,32.9073 C78.8251,32.9073 79.2071,32.8443 79.5191,32.7123 L79.3941,32.0673 C79.1381,32.1553 78.8751,32.1993 78.5501,32.1993 C78.1051,32.1993 77.7111,32.0113 77.6851,31.6173 L79.6571,31.6173 Z M77.6791,30.9663 C77.7051,30.7163 77.8671,30.3463 78.2671,30.3463 C78.7061,30.3463 78.8061,30.7343 78.8061,30.9663 L77.6791,30.9663 Z M80.2591,32.8443 L81.2101,32.8443 L81.2101,31.2923 C81.2101,31.2163 81.2171,31.1423 81.2281,31.0793 C81.2911,30.7853 81.5291,30.5973 81.8801,30.5973 C81.9861,30.5973 82.0611,30.6093 82.1361,30.6223 L82.1361,29.7273 C82.0671,29.7143 82.0241,29.7083 81.9361,29.7083 C81.6361,29.7083 81.2661,29.8963 81.1091,30.3463 L81.0851,30.3463 L81.0471,29.7833 L80.2331,29.7833 C80.2521,30.0463 80.2591,30.3403 80.2591,30.7913 L80.2591,32.8443 Z M82.4251,29.7833 L83.5381,32.8443 L84.4901,32.8443 L85.6291,29.7833 L84.6281,29.7833 L84.2331,31.2043 C84.1641,31.4663 84.1141,31.6983 84.0641,31.9493 L84.0461,31.9493 C83.9951,31.7053 83.9451,31.4663 83.8701,31.2043 L83.4571,29.7833 L82.4251,29.7833 Z M86.0671,32.8443 L87.0181,32.8443 L87.0181,29.7833 L86.0671,29.7833 L86.0671,32.8443 Z M86.5491,28.4563 C86.2421,28.4563 86.0421,28.6633 86.0421,28.9323 C86.0421,29.1953 86.2361,29.4083 86.5371,29.4083 C86.8551,29.4083 87.0501,29.1953 87.0501,28.9323 C87.0441,28.6633 86.8551,28.4563 86.5491,28.4563 L86.5491,28.4563 Z M89.9671,32.0623 C89.8231,32.1243 89.6471,32.1623 89.4221,32.1623 C88.9591,32.1623 88.5841,31.8613 88.5841,31.3043 C88.5771,30.8033 88.9031,30.4473 89.4031,30.4473 C89.6541,30.4473 89.8231,30.4903 89.9351,30.5413 L90.0861,29.8333 C89.8861,29.7583 89.6101,29.7143 89.3591,29.7143 C88.2191,29.7143 87.6071,30.4473 87.6071,31.3413 C87.6071,32.2993 88.2391,32.9073 89.2281,32.9073 C89.5921,32.9073 89.9111,32.8443 90.0791,32.7623 L89.9671,32.0623 Z M90.6051,32.8443 L91.5561,32.8443 L91.5561,29.7833 L90.6051,29.7833 L90.6051,32.8443 Z M91.0881,28.4563 C90.7801,28.4563 90.5801,28.6633 90.5801,28.9323 C90.5801,29.1953 90.7741,29.4083 91.0751,29.4083 C91.3941,29.4083 91.5881,29.1953 91.5881,28.9323 C91.5821,28.6633 91.3941,28.4563 91.0881,28.4563 L91.0881,28.4563 Z M93.7851,29.7083 C92.7961,29.7083 92.1451,30.3403 92.1451,31.3353 C92.1451,32.3243 92.8341,32.9133 93.7291,32.9133 C94.5491,32.9133 95.3441,32.4003 95.3441,31.2793 C95.3441,30.3533 94.7181,29.7083 93.7851,29.7083 L93.7851,29.7083 Z M93.7541,30.3903 C94.1851,30.3903 94.3611,30.8543 94.3611,31.3043 C94.3611,31.8613 94.1301,32.2303 93.7541,32.2303 C93.3461,32.2303 93.1281,31.8363 93.1281,31.3113 C93.1281,30.8593 93.3031,30.3903 93.7541,30.3903 L93.7541,30.3903 Z" id="Fill-16" fill="#595959"></path>
            <polygon id="Clip-898" fill="url(#linearGradient-1)" fill-rule="nonzero" transform="translate(117.477500, 31.500000) scale(-1, 1) translate(-117.477500, -31.500000) " points="97 31.11 137.955 31.11 137.955 31.89 97 31.89"></polygon>
            <polygon id="Fill-1" fill="#016237" points="124.6248 4.6195 124.6248 21.4545 137.9078 21.4545 137.9078 16.4865 131.0888 16.4865 131.0888 4.6195"></polygon>
            <path d="M72.605,-0.0006 L84.995,22.8704 C85.646,24.1294 85.199,25.4754 83.289,25.4984 L70.514,25.4984 L70.514,19.8494 L71.991,19.8494 L68.954,13.9744 L65.912,19.8494 L67.395,19.8494 L67.395,25.4984 L54.619,25.4984 C52.708,25.4754 52.261,24.1294 52.912,22.8704 L65.302,-0.0006 L68.954,6.4354 L72.605,-0.0006 Z M68.9536,6.436 L62.1576,18.969 C61.9976,19.348 62.2776,19.839 62.7606,19.849 L64.0366,19.849 L68.9536,10.673 L73.8656,19.849 L75.1426,19.849 C75.6256,19.839 75.9056,19.348 75.7446,18.969 L68.9536,6.436 Z" id="Combined-Shape" fill="#016237"></path>
            <path d="M94.2147,11.9759 L92.6867,11.9759 L92.6867,8.3819 L94.3027,8.3819 C95.4817,8.3819 96.5947,8.5989 96.5947,10.1189 C96.5947,11.8309 95.4157,11.9759 94.2147,11.9759 M101.3767,15.4249 C100.8307,14.5319 100.0667,13.8569 98.7997,13.6159 L98.7997,13.5679 C100.9837,12.9889 102.4457,11.6859 102.4457,9.1049 C102.4457,5.8729 100.1967,4.6199 96.5517,4.6199 L86.2597,4.6199 L86.2597,21.4549 L92.9477,21.4549 L92.9477,15.7379 L94.2587,15.7379 C94.9797,15.7379 95.5687,15.8349 95.9177,16.6059 C96.3987,17.6199 96.4637,20.2479 96.7267,21.4549 L102.8177,21.4549 C102.2057,19.8139 102.2717,17.2089 101.3767,15.4249" id="Fill-3" fill="#016237"></path>
            <path d="M111.8905,13.7605 L113.6335,8.2375 L113.6795,8.2375 L115.4005,13.7605 L111.8905,13.7605 Z M117.9355,4.6195 L109.5805,4.6195 L104.0315,21.4545 L110.0795,21.4545 L111.0525,17.8125 L116.1695,17.8125 L117.2105,21.4545 L123.5735,21.4545 L117.9355,4.6195 Z" id="Fill-2" fill="#016237"></path>
            <polygon id="Fill-5" fill="#016237" points="39.8744 21.4544 46.3384 21.4544 46.3384 15.4494 53.3594 15.4494 53.3594 11.3964 46.3384 11.3964 46.3384 8.6714 54.2984 8.6714 54.2984 4.6194 39.8744 4.6194"></polygon>
            <path d="M27.2889,17.4026 C24.7999,17.4026 24.5149,14.5566 24.5149,12.7476 C24.5149,11.1796 24.7229,8.0916 27.2889,8.0916 C29.9339,8.0916 30.1149,11.1796 30.1419,12.7476 C30.1149,14.5566 30.0379,17.4026 27.2889,17.4026 M27.2889,4.0406 C20.9629,4.0406 17.2549,7.1036 17.2549,12.7476 C17.2549,18.4876 20.9629,21.4586 27.2889,21.4586 C33.6159,21.4586 37.4009,18.4876 37.4009,12.7476 C37.4009,7.1036 33.6159,4.0406 27.2889,4.0406" id="Fill-7" fill="#016237"></path>
            <path d="M15.6312,16.3172 C14.3762,16.7272 13.1712,16.9682 11.9162,16.9682 C9.0712,16.9682 7.0212,15.4972 7.0212,12.6032 C7.0212,9.8532 9.2252,8.3812 12.1462,8.3812 C13.2992,8.3812 14.4522,8.6712 15.5802,9.0082 L15.5802,4.5712 C13.7352,4.2572 12.6072,4.0402 10.7112,4.0402 C4.9712,4.0402 0.0002,6.8622 0.0002,12.5062 C0.0002,18.5112 4.7662,21.4592 10.7112,21.4592 C12.4532,21.4592 14.3502,21.1162 15.6312,20.7792 L15.6312,16.3172 Z" id="Fill-14" fill="#016237"></path>
        </g>
    </g>
</svg>